<svg xmlns="http://www.w3.org/2000/svg" xmlns:xlink="http://www.w3.org/1999/xlink" width="60" zoomAndPan="magnify" viewBox="0 0 45 44.999999" height="60" preserveAspectRatio="xMidYMid meet" version="1.0"><defs><clipPath id="id1"><path d="M 3.421875 0 L 41.671875 0 L 41.671875 44.25 L 3.421875 44.25 Z M 3.421875 0 " clip-rule="nonzero"/></clipPath></defs><rect x="-4.5" width="54" fill="#ffffff" y="-4.5" height="53.999999" fill-opacity="1"/><rect x="-4.5" width="54" fill="#ffffff" y="-4.5" height="53.999999" fill-opacity="1"/><rect x="-4.5" width="54" fill="#ffffff" y="-4.5" height="53.999999" fill-opacity="1"/><g clip-path="url(#id1)"><path fill="#db1616" d="M 40.9375 8.855469 L 24.972656 8.855469 C 24.949219 8.824219 24.929688 8.789062 24.917969 8.75 C 24.734375 8.171875 24.5 7.609375 24.21875 7.070312 C 24.15625 6.941406 24.175781 6.828125 24.277344 6.726562 C 24.304688 6.699219 24.328125 6.671875 24.351562 6.640625 C 24.5 6.472656 24.613281 6.285156 24.6875 6.074219 C 24.765625 5.863281 24.800781 5.644531 24.792969 5.421875 C 24.785156 5.195312 24.738281 4.980469 24.652344 4.773438 C 24.5625 4.566406 24.441406 4.386719 24.28125 4.226562 L 22.746094 2.6875 C 22.585938 2.53125 22.40625 2.410156 22.199219 2.320312 C 21.996094 2.234375 21.78125 2.1875 21.558594 2.179688 C 21.335938 2.175781 21.121094 2.210938 20.910156 2.285156 C 20.699219 2.359375 20.511719 2.472656 20.34375 2.621094 C 20.3125 2.644531 20.28125 2.667969 20.253906 2.699219 C 20.15625 2.800781 20.046875 2.820312 19.917969 2.761719 C 19.375 2.476562 18.808594 2.238281 18.222656 2.050781 C 18.089844 2.003906 18.023438 1.910156 18.03125 1.769531 C 18.03125 1.535156 17.984375 1.308594 17.894531 1.09375 C 17.804688 0.878906 17.679688 0.6875 17.515625 0.523438 C 17.351562 0.359375 17.160156 0.230469 16.945312 0.140625 C 16.730469 0.0507812 16.503906 0.0078125 16.273438 0.0078125 L 14.109375 0.0078125 C 13.875 0.0078125 13.648438 0.0546875 13.433594 0.144531 C 13.214844 0.234375 13.027344 0.363281 12.859375 0.53125 C 12.695312 0.699219 12.570312 0.890625 12.480469 1.109375 C 12.390625 1.328125 12.347656 1.554688 12.351562 1.789062 C 12.355469 1.921875 12.296875 2.007812 12.171875 2.046875 C 11.582031 2.234375 11.015625 2.472656 10.46875 2.757812 C 10.339844 2.820312 10.226562 2.800781 10.125 2.699219 C 10.101562 2.671875 10.070312 2.644531 10.042969 2.625 C 9.875 2.476562 9.683594 2.363281 9.472656 2.285156 C 9.265625 2.210938 9.046875 2.175781 8.824219 2.179688 C 8.597656 2.1875 8.386719 2.234375 8.179688 2.324219 C 7.972656 2.410156 7.789062 2.535156 7.632812 2.691406 L 6.097656 4.230469 C 5.941406 4.390625 5.820312 4.570312 5.730469 4.777344 C 5.644531 4.984375 5.597656 5.199219 5.589844 5.421875 C 5.585938 5.644531 5.621094 5.859375 5.695312 6.070312 C 5.769531 6.28125 5.882812 6.46875 6.027344 6.636719 C 6.050781 6.667969 6.078125 6.699219 6.105469 6.726562 C 6.207031 6.824219 6.230469 6.9375 6.167969 7.0625 C 5.882812 7.609375 5.648438 8.175781 5.460938 8.765625 C 5.414062 8.898438 5.320312 8.964844 5.179688 8.957031 C 4.945312 8.957031 4.722656 9.003906 4.507812 9.089844 C 4.292969 9.179688 4.101562 9.308594 3.9375 9.472656 C 3.773438 9.640625 3.644531 9.828125 3.554688 10.046875 C 3.464844 10.261719 3.421875 10.484375 3.421875 10.71875 L 3.421875 12.886719 C 3.421875 13.121094 3.464844 13.34375 3.554688 13.5625 C 3.644531 13.777344 3.773438 13.96875 3.9375 14.132812 C 4.101562 14.296875 4.292969 14.425781 4.507812 14.515625 C 4.722656 14.605469 4.945312 14.648438 5.179688 14.648438 C 5.328125 14.644531 5.421875 14.710938 5.464844 14.855469 C 5.648438 15.4375 5.882812 15.996094 6.167969 16.535156 C 6.230469 16.664062 6.210938 16.78125 6.105469 16.878906 C 6.082031 16.90625 6.054688 16.933594 6.035156 16.964844 C 5.886719 17.132812 5.773438 17.324219 5.695312 17.535156 C 5.621094 17.746094 5.585938 17.960938 5.59375 18.1875 C 5.597656 18.410156 5.644531 18.625 5.734375 18.832031 C 5.820312 19.039062 5.945312 19.21875 6.101562 19.378906 L 7.636719 20.917969 C 7.796875 21.074219 7.976562 21.195312 8.183594 21.285156 C 8.386719 21.371094 8.601562 21.417969 8.824219 21.425781 C 9.046875 21.429688 9.261719 21.394531 9.472656 21.320312 C 9.683594 21.246094 9.871094 21.132812 10.039062 20.984375 C 10.070312 20.960938 10.097656 20.9375 10.125 20.90625 C 10.222656 20.804688 10.335938 20.785156 10.464844 20.84375 C 11.007812 21.132812 11.574219 21.367188 12.160156 21.554688 C 12.292969 21.601562 12.359375 21.695312 12.351562 21.835938 C 12.351562 22.070312 12.398438 22.296875 12.488281 22.511719 C 12.574219 22.726562 12.703125 22.917969 12.867188 23.082031 C 13.03125 23.246094 13.222656 23.375 13.4375 23.464844 C 13.652344 23.554688 13.875 23.597656 14.109375 23.597656 L 15.191406 23.597656 L 15.191406 43.507812 C 15.191406 43.710938 15.261719 43.882812 15.40625 44.027344 C 15.550781 44.171875 15.722656 44.242188 15.925781 44.242188 L 37.992188 44.242188 C 38.195312 44.242188 38.371094 44.171875 38.511719 44.027344 C 38.65625 43.882812 38.730469 43.710938 38.730469 43.507812 L 38.730469 41.292969 L 40.9375 41.292969 C 41.140625 41.292969 41.3125 41.222656 41.457031 41.078125 C 41.597656 40.933594 41.671875 40.761719 41.671875 40.558594 L 41.671875 9.589844 C 41.671875 9.386719 41.597656 9.214844 41.457031 9.070312 C 41.3125 8.925781 41.140625 8.855469 40.9375 8.855469 Z M 15.191406 22.125 L 14.109375 22.125 C 14.03125 22.125 13.960938 22.097656 13.90625 22.042969 C 13.847656 21.984375 13.820312 21.917969 13.824219 21.835938 C 13.828125 21.453125 13.714844 21.101562 13.492188 20.789062 C 13.265625 20.476562 12.96875 20.265625 12.601562 20.148438 C 12.097656 19.988281 11.613281 19.785156 11.144531 19.539062 C 10.816406 19.371094 10.472656 19.3125 10.105469 19.359375 C 9.742188 19.410156 9.421875 19.558594 9.148438 19.804688 C 9.121094 19.824219 9.097656 19.847656 9.074219 19.871094 C 9.015625 19.925781 8.949219 19.953125 8.871094 19.953125 C 8.792969 19.953125 8.726562 19.925781 8.671875 19.871094 L 7.144531 18.34375 C 7.089844 18.285156 7.058594 18.21875 7.058594 18.140625 C 7.058594 18.058594 7.085938 17.992188 7.140625 17.933594 C 7.164062 17.910156 7.1875 17.886719 7.207031 17.859375 C 7.453125 17.585938 7.601562 17.265625 7.648438 16.898438 C 7.699219 16.53125 7.636719 16.183594 7.46875 15.851562 C 7.226562 15.390625 7.027344 14.910156 6.867188 14.414062 C 6.753906 14.039062 6.542969 13.742188 6.226562 13.511719 C 5.914062 13.28125 5.566406 13.171875 5.175781 13.175781 C 5.097656 13.175781 5.03125 13.148438 4.976562 13.089844 C 4.917969 13.035156 4.890625 12.964844 4.890625 12.886719 L 4.890625 10.71875 C 4.890625 10.640625 4.917969 10.570312 4.976562 10.515625 C 5.03125 10.457031 5.101562 10.429688 5.179688 10.429688 C 5.5625 10.4375 5.914062 10.324219 6.222656 10.097656 C 6.535156 9.871094 6.75 9.574219 6.863281 9.207031 C 7.023438 8.703125 7.226562 8.214844 7.472656 7.746094 C 7.640625 7.417969 7.699219 7.074219 7.648438 6.707031 C 7.601562 6.339844 7.453125 6.023438 7.207031 5.75 C 7.1875 5.722656 7.164062 5.695312 7.140625 5.671875 C 7.085938 5.617188 7.058594 5.546875 7.058594 5.46875 C 7.058594 5.390625 7.085938 5.324219 7.140625 5.269531 L 8.667969 3.738281 C 8.722656 3.683594 8.789062 3.652344 8.867188 3.652344 C 8.949219 3.652344 9.015625 3.679688 9.074219 3.734375 C 9.097656 3.757812 9.121094 3.78125 9.144531 3.800781 C 9.417969 4.046875 9.738281 4.195312 10.105469 4.246094 C 10.472656 4.292969 10.816406 4.234375 11.144531 4.066406 C 11.617188 3.820312 12.101562 3.617188 12.605469 3.457031 C 12.972656 3.339844 13.265625 3.125 13.492188 2.8125 C 13.71875 2.5 13.828125 2.152344 13.824219 1.769531 C 13.820312 1.6875 13.847656 1.621094 13.90625 1.5625 C 13.960938 1.507812 14.03125 1.480469 14.109375 1.480469 L 16.273438 1.480469 C 16.351562 1.480469 16.417969 1.507812 16.476562 1.5625 C 16.53125 1.621094 16.558594 1.6875 16.558594 1.769531 C 16.554688 2.152344 16.664062 2.503906 16.890625 2.816406 C 17.117188 3.128906 17.414062 3.34375 17.78125 3.457031 C 18.285156 3.617188 18.769531 3.820312 19.234375 4.066406 C 19.5625 4.234375 19.910156 4.292969 20.273438 4.246094 C 20.640625 4.195312 20.957031 4.050781 21.230469 3.800781 C 21.257812 3.78125 21.285156 3.757812 21.308594 3.734375 C 21.363281 3.679688 21.429688 3.652344 21.507812 3.652344 C 21.585938 3.652344 21.65625 3.679688 21.710938 3.734375 L 23.234375 5.265625 C 23.292969 5.320312 23.320312 5.386719 23.324219 5.464844 C 23.324219 5.546875 23.296875 5.613281 23.238281 5.671875 C 23.21875 5.695312 23.195312 5.71875 23.175781 5.746094 C 22.925781 6.019531 22.78125 6.339844 22.730469 6.707031 C 22.683594 7.074219 22.742188 7.421875 22.910156 7.753906 C 23.09375 8.109375 23.253906 8.476562 23.386719 8.855469 L 21.101562 8.855469 C 20.929688 8.503906 20.722656 8.167969 20.492188 7.855469 C 20.257812 7.539062 19.996094 7.246094 19.710938 6.980469 C 19.425781 6.710938 19.121094 6.46875 18.792969 6.253906 C 18.464844 6.039062 18.121094 5.855469 17.757812 5.703125 C 17.398438 5.550781 17.027344 5.429688 16.644531 5.34375 C 16.265625 5.257812 15.878906 5.207031 15.484375 5.1875 C 15.09375 5.167969 14.707031 5.1875 14.316406 5.238281 C 13.929688 5.289062 13.546875 5.375 13.175781 5.492188 C 12.800781 5.613281 12.441406 5.765625 12.097656 5.945312 C 11.75 6.128906 11.421875 6.34375 11.113281 6.582031 C 10.804688 6.824219 10.519531 7.09375 10.257812 7.382812 C 9.996094 7.675781 9.765625 7.988281 9.558594 8.324219 C 9.351562 8.65625 9.175781 9.007812 9.035156 9.371094 C 8.890625 9.738281 8.777344 10.109375 8.699219 10.496094 C 8.625 10.878906 8.582031 11.269531 8.570312 11.660156 C 8.5625 12.054688 8.589844 12.445312 8.648438 12.832031 C 8.710938 13.21875 8.804688 13.597656 8.929688 13.96875 C 9.058594 14.339844 9.21875 14.699219 9.410156 15.039062 C 9.597656 15.382812 9.820312 15.707031 10.066406 16.007812 C 10.316406 16.3125 10.585938 16.59375 10.886719 16.847656 C 11.183594 17.101562 11.5 17.328125 11.839844 17.527344 C 12.175781 17.726562 12.527344 17.894531 12.894531 18.03125 C 13.261719 18.164062 13.640625 18.265625 14.023438 18.335938 C 14.410156 18.40625 14.800781 18.4375 15.191406 18.4375 Z M 15.191406 12.539062 L 15.191406 16.964844 C 14.96875 16.964844 14.75 16.949219 14.53125 16.921875 C 14.3125 16.894531 14.097656 16.855469 13.882812 16.796875 C 13.667969 16.742188 13.460938 16.671875 13.253906 16.589844 C 13.050781 16.507812 12.851562 16.414062 12.660156 16.304688 C 12.46875 16.199219 12.28125 16.078125 12.105469 15.945312 C 11.929688 15.8125 11.761719 15.671875 11.601562 15.515625 C 11.445312 15.363281 11.296875 15.199219 11.15625 15.027344 C 11.019531 14.855469 10.894531 14.675781 10.777344 14.484375 C 10.664062 14.296875 10.5625 14.101562 10.472656 13.898438 C 10.382812 13.699219 10.304688 13.492188 10.242188 13.277344 C 10.179688 13.066406 10.128906 12.851562 10.09375 12.632812 C 10.058594 12.414062 10.039062 12.195312 10.03125 11.976562 C 10.023438 11.753906 10.03125 11.535156 10.050781 11.3125 C 10.070312 11.09375 10.105469 10.875 10.15625 10.660156 C 10.203125 10.445312 10.265625 10.234375 10.34375 10.027344 C 10.417969 9.816406 10.507812 9.617188 10.609375 9.421875 C 10.710938 9.222656 10.824219 9.035156 10.953125 8.855469 C 11.078125 8.671875 11.214844 8.5 11.363281 8.335938 C 11.511719 8.171875 11.667969 8.019531 11.835938 7.875 C 12.003906 7.730469 12.179688 7.601562 12.367188 7.480469 C 12.550781 7.359375 12.742188 7.25 12.941406 7.152344 C 13.140625 7.058594 13.34375 6.976562 13.554688 6.90625 C 13.761719 6.835938 13.976562 6.78125 14.191406 6.738281 C 14.410156 6.695312 14.625 6.667969 14.847656 6.652344 C 15.066406 6.636719 15.289062 6.636719 15.507812 6.652344 C 15.726562 6.667969 15.945312 6.695312 16.164062 6.738281 C 16.378906 6.78125 16.589844 6.835938 16.800781 6.90625 C 17.011719 6.976562 17.214844 7.058594 17.414062 7.152344 C 17.613281 7.25 17.804688 7.359375 17.988281 7.480469 C 18.171875 7.601562 18.347656 7.730469 18.515625 7.875 C 18.683594 8.019531 18.84375 8.171875 18.992188 8.335938 C 19.140625 8.5 19.277344 8.671875 19.402344 8.855469 L 18.867188 8.855469 C 18.664062 8.855469 18.492188 8.925781 18.347656 9.070312 C 18.203125 9.214844 18.132812 9.386719 18.132812 9.589844 L 18.132812 11.804688 L 15.925781 11.804688 C 15.722656 11.804688 15.550781 11.875 15.40625 12.019531 C 15.261719 12.164062 15.191406 12.335938 15.191406 12.539062 Z M 37.257812 42.769531 L 16.660156 42.769531 L 16.660156 13.277344 L 37.257812 13.277344 Z M 40.199219 39.820312 L 38.730469 39.820312 L 38.730469 12.539062 C 38.730469 12.335938 38.65625 12.164062 38.511719 12.019531 C 38.371094 11.875 38.195312 11.804688 37.992188 11.804688 L 19.605469 11.804688 L 19.605469 10.328125 L 40.199219 10.328125 Z M 40.199219 39.820312 " fill-opacity="1" fill-rule="nonzero"/></g><path fill="#db1616" d="M 23.28125 28.761719 L 30.636719 28.761719 C 30.839844 28.761719 31.015625 28.6875 31.15625 28.542969 C 31.300781 28.402344 31.375 28.226562 31.375 28.023438 L 31.375 22.125 C 31.375 21.832031 31.316406 21.550781 31.207031 21.277344 C 31.09375 21.007812 30.933594 20.769531 30.726562 20.5625 C 30.519531 20.355469 30.28125 20.195312 30.011719 20.082031 C 29.742188 19.96875 29.460938 19.914062 29.167969 19.914062 L 28.886719 19.914062 C 29.191406 19.648438 29.429688 19.335938 29.605469 18.972656 C 29.78125 18.609375 29.878906 18.226562 29.898438 17.824219 C 29.917969 17.421875 29.859375 17.03125 29.71875 16.652344 C 29.578125 16.277344 29.367188 15.941406 29.089844 15.648438 C 28.8125 15.355469 28.488281 15.132812 28.117188 14.972656 C 27.75 14.8125 27.363281 14.734375 26.960938 14.734375 C 26.558594 14.734375 26.171875 14.8125 25.800781 14.972656 C 25.429688 15.132812 25.109375 15.355469 24.832031 15.648438 C 24.550781 15.941406 24.34375 16.277344 24.203125 16.652344 C 24.0625 17.03125 24 17.421875 24.019531 17.824219 C 24.039062 18.226562 24.136719 18.609375 24.3125 18.972656 C 24.488281 19.335938 24.730469 19.648438 25.035156 19.914062 L 24.753906 19.914062 C 24.460938 19.914062 24.179688 19.96875 23.910156 20.082031 C 23.636719 20.195312 23.398438 20.355469 23.191406 20.5625 C 22.984375 20.769531 22.828125 21.007812 22.714844 21.277344 C 22.601562 21.550781 22.546875 21.832031 22.546875 22.125 L 22.546875 28.023438 C 22.546875 28.226562 22.617188 28.402344 22.761719 28.542969 C 22.90625 28.6875 23.078125 28.761719 23.28125 28.761719 Z M 26.960938 16.226562 C 27.15625 16.226562 27.34375 16.265625 27.523438 16.339844 C 27.703125 16.414062 27.863281 16.519531 28 16.660156 C 28.136719 16.796875 28.246094 16.957031 28.320312 17.136719 C 28.394531 17.316406 28.429688 17.503906 28.429688 17.703125 C 28.429688 17.898438 28.394531 18.085938 28.320312 18.265625 C 28.246094 18.445312 28.136719 18.605469 28 18.742188 C 27.863281 18.882812 27.703125 18.988281 27.523438 19.0625 C 27.34375 19.136719 27.15625 19.175781 26.960938 19.175781 C 26.765625 19.175781 26.578125 19.136719 26.398438 19.0625 C 26.214844 18.988281 26.058594 18.882812 25.917969 18.742188 C 25.78125 18.605469 25.675781 18.445312 25.601562 18.265625 C 25.527344 18.085938 25.488281 17.898438 25.488281 17.703125 C 25.488281 17.503906 25.527344 17.316406 25.601562 17.136719 C 25.675781 16.957031 25.78125 16.796875 25.917969 16.660156 C 26.058594 16.519531 26.214844 16.414062 26.398438 16.339844 C 26.578125 16.265625 26.765625 16.226562 26.960938 16.226562 Z M 24.015625 22.125 C 24.015625 21.921875 24.089844 21.746094 24.234375 21.605469 C 24.375 21.460938 24.550781 21.386719 24.753906 21.386719 L 29.167969 21.386719 C 29.371094 21.386719 29.542969 21.460938 29.6875 21.605469 C 29.832031 21.746094 29.902344 21.921875 29.902344 22.125 L 29.902344 27.285156 L 24.015625 27.285156 Z M 24.015625 22.125 " fill-opacity="1" fill-rule="nonzero"/><path fill="#db1616" d="M 23.929688 37.417969 L 23.464844 40.125 C 23.414062 40.425781 23.511719 40.667969 23.757812 40.847656 C 24.003906 41.027344 24.261719 41.042969 24.53125 40.902344 L 26.960938 39.625 L 29.386719 40.902344 C 29.65625 41.046875 29.914062 41.027344 30.164062 40.847656 C 30.410156 40.667969 30.507812 40.425781 30.457031 40.125 L 29.992188 37.417969 L 31.953125 35.5 C 32.171875 35.289062 32.234375 35.035156 32.140625 34.746094 C 32.046875 34.453125 31.847656 34.285156 31.546875 34.242188 L 28.832031 33.847656 L 27.621094 31.382812 C 27.554688 31.265625 27.460938 31.175781 27.34375 31.105469 C 27.222656 31.039062 27.097656 31.003906 26.960938 31.003906 C 26.828125 31.003906 26.699219 31.039062 26.582031 31.105469 C 26.464844 31.175781 26.371094 31.265625 26.300781 31.382812 L 25.085938 33.847656 L 22.375 34.242188 C 22.074219 34.285156 21.875 34.453125 21.78125 34.746094 C 21.6875 35.035156 21.75 35.289062 21.964844 35.5 Z M 25.679688 35.25 C 25.9375 35.210938 26.121094 35.078125 26.234375 34.84375 L 26.960938 33.371094 L 27.683594 34.84375 C 27.796875 35.078125 27.984375 35.210938 28.238281 35.25 L 29.855469 35.484375 L 28.683594 36.628906 C 28.5 36.808594 28.429688 37.027344 28.472656 37.28125 L 28.75 38.898438 L 27.300781 38.136719 C 27.070312 38.015625 26.84375 38.015625 26.617188 38.136719 L 25.164062 38.898438 L 25.441406 37.28125 C 25.488281 37.027344 25.417969 36.808594 25.230469 36.628906 L 24.058594 35.484375 Z M 25.679688 35.25 " fill-opacity="1" fill-rule="nonzero"/></svg>