<svg xmlns="http://www.w3.org/2000/svg" xmlns:xlink="http://www.w3.org/1999/xlink" width="60" zoomAndPan="magnify" viewBox="0 0 45 44.999999" height="60" preserveAspectRatio="xMidYMid meet" version="1.0"><defs><clipPath id="id1"><path d="M 7.3125 21 L 38 21 L 38 45 L 7.3125 45 Z M 7.3125 21 " clip-rule="nonzero"/></clipPath><clipPath id="id2"><path d="M 7.316406 21.191406 L 38.054688 21.191406 L 38.054688 45 L 7.316406 45 Z M 7.316406 21.191406 " clip-rule="nonzero"/></clipPath><clipPath id="id3"><path d="M 10.867188 27.746094 L 34.511719 27.746094 L 34.511719 45 L 10.867188 45 Z M 10.867188 27.746094 " clip-rule="nonzero"/></clipPath></defs><rect x="-4.5" width="54" fill="#ffffff" y="-4.5" height="53.999999" fill-opacity="1"/><rect x="-4.5" width="54" fill="#ffffff" y="-4.5" height="53.999999" fill-opacity="1"/><rect x="-4.5" width="54" fill="#ffffff" y="-4.5" height="53.999999" fill-opacity="1"/><g clip-path="url(#id1)"><path fill="#ed1c24" d="M 22.683594 44.78125 C 20.777344 44.78125 18.921875 44.515625 17.167969 43.996094 C 15.339844 43.453125 13.710938 42.652344 12.320312 41.621094 C 10.828125 40.511719 9.664062 39.164062 8.855469 37.621094 C 7.980469 35.949219 7.539062 34.066406 7.539062 32.027344 C 7.539062 30.601562 7.828125 29.214844 8.394531 27.90625 C 8.945312 26.640625 9.730469 25.507812 10.726562 24.53125 C 11.722656 23.554688 12.882812 22.789062 14.175781 22.253906 C 15.511719 21.695312 16.925781 21.414062 18.382812 21.410156 C 18.386719 21.410156 18.386719 21.410156 18.386719 21.410156 C 18.5 21.410156 18.613281 21.445312 18.707031 21.511719 C 19.882812 22.339844 21.261719 22.78125 22.6875 22.78125 C 24.117188 22.78125 25.492188 22.339844 26.667969 21.511719 C 26.761719 21.445312 26.875 21.410156 26.988281 21.410156 C 28.445312 21.414062 29.863281 21.695312 31.199219 22.253906 C 32.492188 22.789062 33.648438 23.554688 34.648438 24.53125 C 35.644531 25.507812 36.429688 26.640625 36.976562 27.90625 C 37.546875 29.214844 37.835938 30.601562 37.835938 32.027344 C 37.835938 34.066406 37.390625 35.949219 36.519531 37.617188 C 35.710938 39.164062 34.542969 40.511719 33.054688 41.617188 C 31.664062 42.652344 30.03125 43.449219 28.203125 43.996094 C 26.449219 44.515625 24.59375 44.78125 22.6875 44.78125 C 22.6875 44.78125 22.6875 44.78125 22.683594 44.78125 Z M 18.214844 22.503906 C 12.921875 22.601562 8.644531 26.839844 8.644531 32.027344 C 8.644531 35.621094 10.144531 38.636719 12.984375 40.746094 C 15.535156 42.644531 18.980469 43.6875 22.683594 43.6875 C 22.6875 43.6875 22.6875 43.6875 22.6875 43.6875 C 29.449219 43.6875 36.730469 40.039062 36.730469 32.027344 C 36.730469 26.839844 32.453125 22.601562 27.160156 22.503906 C 25.832031 23.398438 24.289062 23.871094 22.6875 23.871094 C 21.089844 23.871094 19.546875 23.398438 18.214844 22.503906 " fill-opacity="1" fill-rule="nonzero"/></g><g clip-path="url(#id2)"><path fill="#db1616" d="M 22.6875 45 L 22.683594 45 C 20.757812 45 18.878906 44.730469 17.105469 44.203125 C 15.25 43.652344 13.597656 42.84375 12.1875 41.792969 C 10.667969 40.667969 9.484375 39.296875 8.660156 37.71875 C 7.769531 36.019531 7.316406 34.105469 7.316406 32.027344 C 7.316406 30.570312 7.613281 29.15625 8.191406 27.816406 C 8.753906 26.53125 9.554688 25.371094 10.570312 24.375 C 11.589844 23.382812 12.773438 22.597656 14.089844 22.050781 C 15.453125 21.484375 16.898438 21.195312 18.382812 21.191406 C 18.546875 21.191406 18.703125 21.242188 18.835938 21.335938 C 19.972656 22.136719 21.308594 22.5625 22.6875 22.5625 C 24.070312 22.5625 25.402344 22.136719 26.539062 21.335938 C 26.671875 21.242188 26.828125 21.191406 26.988281 21.191406 C 28.476562 21.195312 29.921875 21.484375 31.285156 22.050781 C 32.601562 22.597656 33.785156 23.382812 34.804688 24.375 C 35.820312 25.371094 36.621094 26.53125 37.179688 27.816406 C 37.761719 29.15625 38.054688 30.570312 38.054688 32.027344 C 38.054688 34.101562 37.605469 36.019531 36.714844 37.71875 C 35.890625 39.292969 34.703125 40.664062 33.1875 41.792969 C 31.777344 42.839844 30.121094 43.652344 28.269531 44.203125 C 26.492188 44.730469 24.617188 45 22.6875 45 Z M 18.386719 21.628906 C 16.957031 21.632812 15.570312 21.910156 14.261719 22.453125 C 12.996094 22.980469 11.859375 23.730469 10.882812 24.6875 C 9.90625 25.644531 9.136719 26.753906 8.601562 27.992188 C 8.042969 29.273438 7.761719 30.628906 7.761719 32.027344 C 7.761719 34.03125 8.195312 35.878906 9.050781 37.519531 C 9.84375 39.035156 10.988281 40.355469 12.453125 41.445312 C 13.820312 42.460938 15.429688 43.25 17.230469 43.785156 C 18.964844 44.300781 20.800781 44.5625 22.683594 44.5625 L 22.6875 44.78125 L 22.6875 44.5625 C 24.574219 44.5625 26.40625 44.300781 28.140625 43.785156 C 29.945312 43.25 31.550781 42.460938 32.921875 41.445312 C 34.382812 40.355469 35.527344 39.035156 36.324219 37.519531 C 37.179688 35.878906 37.613281 34.03125 37.613281 32.027344 C 37.613281 30.628906 37.332031 29.273438 36.773438 27.992188 C 36.238281 26.753906 35.46875 25.644531 34.492188 24.6875 C 33.515625 23.730469 32.378906 22.980469 31.113281 22.453125 C 29.804688 21.910156 28.417969 21.632812 26.988281 21.628906 C 26.917969 21.628906 26.851562 21.652344 26.796875 21.691406 C 25.585938 22.546875 24.164062 23 22.6875 23 C 21.214844 23 19.792969 22.546875 18.578125 21.691406 C 18.519531 21.652344 18.453125 21.628906 18.386719 21.628906 Z M 22.6875 43.90625 C 18.933594 43.90625 15.441406 42.847656 12.851562 40.921875 C 9.957031 38.769531 8.425781 35.691406 8.425781 32.027344 C 8.425781 30.730469 8.683594 29.46875 9.191406 28.277344 C 9.683594 27.128906 10.390625 26.097656 11.289062 25.203125 C 12.1875 24.3125 13.230469 23.605469 14.398438 23.105469 C 15.605469 22.585938 16.886719 22.3125 18.210938 22.289062 L 18.28125 22.285156 L 18.339844 22.324219 C 19.632812 23.195312 21.136719 23.652344 22.6875 23.652344 C 24.242188 23.652344 25.746094 23.195312 27.035156 22.324219 L 27.09375 22.285156 L 27.164062 22.289062 C 28.488281 22.3125 29.769531 22.585938 30.976562 23.105469 C 32.144531 23.605469 33.1875 24.3125 34.085938 25.203125 C 34.984375 26.097656 35.691406 27.128906 36.183594 28.277344 C 36.691406 29.46875 36.949219 30.730469 36.949219 32.027344 C 36.949219 33.976562 36.523438 35.761719 35.683594 37.332031 C 34.910156 38.769531 33.796875 40.015625 32.375 41.039062 C 31.0625 41.980469 29.523438 42.710938 27.796875 43.203125 C 26.980469 43.4375 26.128906 43.613281 25.261719 43.734375 C 24.414062 43.847656 23.546875 43.90625 22.6875 43.90625 Z M 18.148438 22.726562 C 13.023438 22.855469 8.867188 27.015625 8.867188 32.027344 C 8.867188 35.550781 10.335938 38.503906 13.117188 40.574219 C 15.632812 42.441406 19.027344 43.46875 22.683594 43.46875 C 29.34375 43.46875 36.507812 39.890625 36.507812 32.027344 C 36.507812 27.015625 32.351562 22.855469 27.226562 22.726562 C 25.875 23.617188 24.308594 24.089844 22.6875 24.089844 C 21.074219 24.089844 19.503906 23.617188 18.148438 22.726562 " fill-opacity="1" fill-rule="nonzero"/></g><path fill="#ed1c24" d="M 18.707031 35.542969 L 14.726562 35.542969 C 14.421875 35.542969 14.175781 35.296875 14.175781 34.996094 L 14.175781 22.625 C 14.175781 22.398438 14.316406 22.195312 14.53125 22.113281 C 15.769531 21.648438 17.070312 21.410156 18.394531 21.410156 L 18.707031 21.410156 C 19.011719 21.410156 19.257812 21.65625 19.257812 21.957031 L 19.257812 34.996094 C 19.257812 35.296875 19.011719 35.542969 18.707031 35.542969 Z M 15.28125 34.449219 L 18.152344 34.449219 L 18.152344 22.507812 C 17.171875 22.53125 16.210938 22.699219 15.28125 23.007812 L 15.28125 34.449219 " fill-opacity="1" fill-rule="nonzero"/><path fill="#db1616" d="M 18.707031 35.761719 L 14.726562 35.761719 C 14.300781 35.761719 13.953125 35.417969 13.953125 34.996094 L 13.953125 22.625 C 13.953125 22.308594 14.152344 22.019531 14.453125 21.910156 C 15.71875 21.433594 17.042969 21.191406 18.394531 21.191406 L 18.707031 21.191406 C 19.132812 21.191406 19.480469 21.535156 19.480469 21.957031 L 19.480469 34.996094 C 19.480469 35.417969 19.132812 35.761719 18.707031 35.761719 Z M 18.394531 21.628906 C 17.097656 21.628906 15.824219 21.863281 14.609375 22.316406 C 14.480469 22.367188 14.394531 22.488281 14.394531 22.625 L 14.394531 34.996094 C 14.394531 35.175781 14.542969 35.324219 14.726562 35.324219 L 18.707031 35.324219 C 18.890625 35.324219 19.039062 35.175781 19.039062 34.996094 L 19.039062 21.957031 C 19.039062 21.777344 18.890625 21.628906 18.707031 21.628906 Z M 18.375 34.667969 L 15.058594 34.667969 L 15.058594 22.851562 L 15.210938 22.800781 C 16.160156 22.484375 17.148438 22.3125 18.148438 22.289062 L 18.375 22.28125 Z M 15.5 34.230469 L 17.933594 34.230469 L 17.933594 22.734375 C 17.105469 22.773438 16.289062 22.917969 15.5 23.167969 L 15.5 34.230469 " fill-opacity="1" fill-rule="nonzero"/><path fill="#ed1c24" d="M 30.648438 35.542969 L 26.667969 35.542969 C 26.363281 35.542969 26.117188 35.296875 26.117188 34.996094 L 26.117188 21.957031 C 26.117188 21.65625 26.363281 21.410156 26.667969 21.410156 L 26.980469 21.410156 C 28.308594 21.410156 29.609375 21.648438 30.84375 22.113281 C 31.058594 22.195312 31.199219 22.398438 31.199219 22.625 L 31.199219 34.996094 C 31.199219 35.296875 30.953125 35.542969 30.648438 35.542969 Z M 27.222656 34.449219 L 30.09375 34.449219 L 30.09375 23.007812 C 29.167969 22.699219 28.203125 22.53125 27.222656 22.507812 L 27.222656 34.449219 " fill-opacity="1" fill-rule="nonzero"/><path fill="#db1616" d="M 30.648438 35.761719 L 26.667969 35.761719 C 26.242188 35.761719 25.894531 35.417969 25.894531 34.996094 L 25.894531 21.957031 C 25.894531 21.535156 26.242188 21.191406 26.667969 21.191406 L 26.980469 21.191406 C 28.332031 21.191406 29.660156 21.433594 30.921875 21.910156 C 31.222656 22.019531 31.421875 22.308594 31.421875 22.625 L 31.421875 34.996094 C 31.421875 35.417969 31.074219 35.761719 30.648438 35.761719 Z M 26.667969 21.628906 C 26.484375 21.628906 26.335938 21.777344 26.335938 21.957031 L 26.335938 34.996094 C 26.335938 35.175781 26.484375 35.324219 26.667969 35.324219 L 30.648438 35.324219 C 30.832031 35.324219 30.980469 35.175781 30.980469 34.996094 L 30.980469 22.625 C 30.980469 22.488281 30.894531 22.367188 30.765625 22.316406 C 29.554688 21.863281 28.28125 21.628906 26.980469 21.628906 Z M 30.316406 34.667969 L 27 34.667969 L 27 22.28125 L 27.226562 22.289062 C 28.230469 22.3125 29.21875 22.484375 30.164062 22.800781 L 30.316406 22.851562 Z M 27.441406 34.230469 L 29.875 34.230469 L 29.875 23.164062 C 29.085938 22.917969 28.269531 22.773438 27.441406 22.734375 L 27.441406 34.230469 " fill-opacity="1" fill-rule="nonzero"/><path fill="#ed1c24" d="M 22.6875 44.777344 C 21.625 44.777344 20.566406 44.695312 19.53125 44.527344 C 18.484375 44.359375 17.460938 44.109375 16.496094 43.777344 C 15.5 43.4375 14.558594 43.015625 13.699219 42.519531 C 12.804688 42.003906 11.988281 41.40625 11.269531 40.746094 C 11.15625 40.640625 11.09375 40.496094 11.09375 40.347656 L 11.09375 32.496094 C 11.09375 31.976562 11.183594 31.46875 11.359375 30.984375 C 11.53125 30.519531 11.777344 30.082031 12.09375 29.691406 C 12.40625 29.304688 12.78125 28.972656 13.203125 28.703125 C 13.628906 28.425781 14.097656 28.226562 14.59375 28.105469 C 14.757812 28.0625 14.933594 28.097656 15.066406 28.203125 C 15.203125 28.304688 15.28125 28.464844 15.28125 28.632812 L 15.28125 34.449219 L 18.152344 34.449219 L 18.152344 28.511719 C 18.152344 28.210938 18.402344 27.964844 18.707031 27.964844 L 26.667969 27.964844 C 26.972656 27.964844 27.222656 28.210938 27.222656 28.511719 L 27.222656 34.449219 L 30.09375 34.449219 L 30.09375 28.632812 C 30.09375 28.464844 30.171875 28.304688 30.308594 28.203125 C 30.441406 28.097656 30.617188 28.0625 30.78125 28.105469 C 31.277344 28.226562 31.746094 28.425781 32.175781 28.703125 C 32.597656 28.972656 32.96875 29.304688 33.28125 29.691406 C 33.601562 30.082031 33.847656 30.519531 34.019531 30.984375 C 34.195312 31.46875 34.285156 31.976562 34.285156 32.496094 L 34.285156 40.347656 C 34.285156 40.496094 34.21875 40.640625 34.109375 40.746094 C 33.390625 41.40625 32.574219 42.003906 31.679688 42.519531 C 30.816406 43.015625 29.875 43.4375 28.882812 43.777344 C 27.914062 44.109375 26.894531 44.359375 25.84375 44.527344 C 24.8125 44.695312 23.75 44.777344 22.6875 44.777344 Z M 12.199219 40.105469 C 14.773438 42.382812 18.578125 43.6875 22.6875 43.6875 C 26.796875 43.6875 30.605469 42.382812 33.179688 40.105469 L 33.179688 32.496094 C 33.179688 31.164062 32.394531 29.976562 31.199219 29.410156 L 31.199219 34.996094 C 31.199219 35.296875 30.953125 35.542969 30.648438 35.542969 L 26.667969 35.542969 C 26.363281 35.542969 26.117188 35.296875 26.117188 34.996094 L 26.117188 29.058594 L 19.257812 29.058594 L 19.257812 34.996094 C 19.257812 35.296875 19.011719 35.542969 18.707031 35.542969 L 14.726562 35.542969 C 14.421875 35.542969 14.175781 35.296875 14.175781 34.996094 L 14.175781 29.410156 C 12.984375 29.976562 12.199219 31.164062 12.199219 32.496094 L 12.199219 40.105469 " fill-opacity="1" fill-rule="nonzero"/><g clip-path="url(#id3)"><path fill="#db1616" d="M 22.6875 44.996094 C 21.613281 44.996094 20.539062 44.914062 19.496094 44.746094 C 18.433594 44.574219 17.402344 44.316406 16.421875 43.984375 C 15.414062 43.640625 14.460938 43.210938 13.585938 42.707031 C 12.679688 42.183594 11.847656 41.578125 11.117188 40.902344 C 10.960938 40.761719 10.871094 40.554688 10.871094 40.347656 L 10.871094 32.496094 C 10.871094 31.953125 10.964844 31.421875 11.152344 30.910156 C 11.332031 30.421875 11.589844 29.964844 11.921875 29.554688 C 12.25 29.148438 12.640625 28.800781 13.082031 28.519531 C 13.53125 28.230469 14.019531 28.019531 14.539062 27.890625 C 14.601562 27.875 14.664062 27.867188 14.726562 27.867188 C 14.898438 27.867188 15.066406 27.925781 15.203125 28.03125 C 15.390625 28.175781 15.5 28.394531 15.5 28.632812 L 15.5 34.230469 L 17.933594 34.230469 L 17.933594 28.511719 C 17.933594 28.089844 18.277344 27.746094 18.707031 27.746094 L 26.667969 27.746094 C 27.09375 27.746094 27.441406 28.089844 27.441406 28.511719 L 27.441406 34.230469 L 29.875 34.230469 L 29.875 28.632812 C 29.875 28.394531 29.980469 28.175781 30.171875 28.03125 C 30.304688 27.925781 30.476562 27.867188 30.648438 27.867188 C 30.710938 27.867188 30.773438 27.875 30.835938 27.890625 C 31.355469 28.019531 31.84375 28.230469 32.292969 28.519531 C 32.738281 28.800781 33.128906 29.148438 33.457031 29.554688 C 33.789062 29.964844 34.046875 30.421875 34.226562 30.910156 C 34.410156 31.421875 34.503906 31.953125 34.503906 32.496094 L 34.503906 40.347656 C 34.503906 40.558594 34.414062 40.761719 34.257812 40.90625 C 33.53125 41.578125 32.699219 42.183594 31.789062 42.707031 C 30.914062 43.210938 29.960938 43.640625 28.953125 43.984375 C 27.976562 44.316406 26.941406 44.574219 25.878906 44.746094 C 24.835938 44.914062 23.761719 44.996094 22.6875 44.996094 Z M 14.726562 28.304688 C 14.699219 28.304688 14.671875 28.308594 14.644531 28.316406 C 14.175781 28.433594 13.730469 28.625 13.320312 28.886719 C 12.921875 29.140625 12.566406 29.460938 12.265625 29.828125 C 11.964844 30.199219 11.730469 30.613281 11.566406 31.058594 C 11.398438 31.519531 11.316406 32.003906 11.316406 32.496094 L 11.316406 40.347656 C 11.316406 40.4375 11.351562 40.523438 11.421875 40.585938 C 12.125 41.234375 12.929688 41.824219 13.808594 42.328125 C 14.660156 42.816406 15.585938 43.234375 16.566406 43.570312 C 17.519531 43.898438 18.53125 44.148438 19.566406 44.3125 C 20.589844 44.476562 21.636719 44.5625 22.6875 44.5625 C 23.738281 44.5625 24.785156 44.476562 25.808594 44.3125 C 26.84375 44.148438 27.855469 43.898438 28.808594 43.570312 C 29.789062 43.234375 30.71875 42.816406 31.566406 42.328125 C 32.449219 41.824219 33.25 41.234375 33.957031 40.585938 C 34.023438 40.523438 34.0625 40.4375 34.0625 40.347656 L 34.0625 32.496094 C 34.0625 32.003906 33.976562 31.519531 33.808594 31.058594 C 33.648438 30.613281 33.414062 30.199219 33.109375 29.828125 C 32.8125 29.457031 32.457031 29.140625 32.054688 28.886719 C 31.644531 28.625 31.199219 28.433594 30.726562 28.316406 C 30.703125 28.308594 30.675781 28.304688 30.648438 28.304688 C 30.574219 28.304688 30.5 28.332031 30.445312 28.375 C 30.363281 28.4375 30.316406 28.53125 30.316406 28.632812 L 30.316406 34.667969 L 27 34.667969 L 27 28.511719 C 27 28.332031 26.851562 28.183594 26.667969 28.183594 L 18.707031 28.183594 C 18.523438 28.183594 18.375 28.332031 18.375 28.511719 L 18.375 34.667969 L 15.058594 34.667969 L 15.058594 28.632812 C 15.058594 28.53125 15.011719 28.4375 14.929688 28.375 C 14.875 28.332031 14.800781 28.304688 14.726562 28.304688 Z M 22.6875 43.90625 C 21.660156 43.90625 20.632812 43.824219 19.640625 43.664062 C 18.660156 43.503906 17.703125 43.265625 16.796875 42.957031 C 15.886719 42.648438 15.027344 42.261719 14.234375 41.816406 C 13.433594 41.363281 12.699219 40.84375 12.050781 40.269531 L 11.980469 40.203125 L 11.980469 32.496094 C 11.980469 31.804688 12.175781 31.132812 12.554688 30.546875 C 12.925781 29.972656 13.453125 29.511719 14.078125 29.210938 L 14.394531 29.0625 L 14.394531 34.996094 C 14.394531 35.175781 14.542969 35.324219 14.726562 35.324219 L 18.707031 35.324219 C 18.890625 35.324219 19.039062 35.175781 19.039062 34.996094 L 19.039062 28.839844 L 26.335938 28.839844 L 26.335938 34.996094 C 26.335938 35.175781 26.484375 35.324219 26.667969 35.324219 L 30.648438 35.324219 C 30.832031 35.324219 30.980469 35.175781 30.980469 34.996094 L 30.980469 29.0625 L 31.296875 29.210938 C 31.921875 29.511719 32.449219 29.972656 32.824219 30.546875 C 33.199219 31.132812 33.398438 31.804688 33.398438 32.496094 L 33.398438 40.203125 L 33.324219 40.269531 C 32.675781 40.84375 31.941406 41.363281 31.140625 41.816406 C 30.347656 42.261719 29.488281 42.648438 28.582031 42.957031 C 27.675781 43.265625 26.714844 43.503906 25.734375 43.664062 C 24.742188 43.824219 23.714844 43.90625 22.6875 43.90625 Z M 12.421875 40.007812 C 14.949219 42.207031 18.683594 43.46875 22.6875 43.46875 C 26.691406 43.46875 30.425781 42.207031 32.957031 40.007812 L 32.957031 32.496094 C 32.957031 31.375 32.375 30.363281 31.421875 29.777344 L 31.421875 34.996094 C 31.421875 35.417969 31.074219 35.761719 30.648438 35.761719 L 26.667969 35.761719 C 26.242188 35.761719 25.894531 35.417969 25.894531 34.996094 L 25.894531 29.277344 L 19.480469 29.277344 L 19.480469 34.996094 C 19.480469 35.417969 19.132812 35.761719 18.707031 35.761719 L 14.726562 35.761719 C 14.300781 35.761719 13.953125 35.417969 13.953125 34.996094 L 13.953125 29.777344 C 13 30.363281 12.421875 31.375 12.421875 32.496094 L 12.421875 40.007812 " fill-opacity="1" fill-rule="nonzero"/></g><path fill="#ed1c24" d="M 32.589844 13.546875 L 12.785156 13.546875 C 12.480469 13.546875 12.230469 13.300781 12.230469 13 L 12.230469 10.582031 C 12.230469 10.277344 12.480469 10.035156 12.785156 10.035156 L 32.589844 10.035156 C 32.894531 10.035156 33.140625 10.277344 33.140625 10.582031 L 33.140625 13 C 33.140625 13.300781 32.894531 13.546875 32.589844 13.546875 Z M 13.339844 12.453125 L 32.035156 12.453125 L 32.035156 11.125 L 13.339844 11.125 L 13.339844 12.453125 " fill-opacity="1" fill-rule="nonzero"/><path fill="#db1616" d="M 32.589844 13.765625 L 12.785156 13.765625 C 12.359375 13.765625 12.011719 13.421875 12.011719 13 L 12.011719 10.578125 C 12.011719 10.160156 12.359375 9.816406 12.785156 9.816406 L 32.589844 9.816406 C 33.015625 9.816406 33.363281 10.160156 33.363281 10.578125 L 33.363281 13 C 33.363281 13.421875 33.015625 13.765625 32.589844 13.765625 Z M 12.785156 10.253906 C 12.601562 10.253906 12.453125 10.398438 12.453125 10.578125 L 12.453125 13 C 12.453125 13.179688 12.601562 13.328125 12.785156 13.328125 L 32.589844 13.328125 C 32.773438 13.328125 32.921875 13.179688 32.921875 13 L 32.921875 10.578125 C 32.921875 10.398438 32.773438 10.253906 32.589844 10.253906 Z M 32.257812 12.671875 L 13.117188 12.671875 L 13.117188 10.90625 L 32.257812 10.90625 Z M 13.558594 12.234375 L 31.816406 12.234375 L 31.816406 11.34375 L 13.558594 11.34375 L 13.558594 12.234375 " fill-opacity="1" fill-rule="nonzero"/><path fill="#ed1c24" d="M 31.203125 11.125 L 14.171875 11.125 C 13.867188 11.125 13.621094 10.882812 13.621094 10.578125 C 13.621094 7.929688 14.816406 5.441406 16.90625 3.746094 C 17.410156 3.339844 17.960938 2.984375 18.539062 2.695312 C 19.125 2.398438 19.75 2.164062 20.386719 2 C 20.542969 1.960938 20.707031 1.992188 20.839844 2.082031 C 20.972656 2.171875 21.058594 2.3125 21.074219 2.46875 L 21.730469 8.21875 L 23.644531 8.21875 L 24.300781 2.46875 C 24.316406 2.3125 24.402344 2.171875 24.535156 2.082031 C 24.667969 1.992188 24.832031 1.960938 24.988281 2 C 25.949219 2.246094 26.855469 2.644531 27.6875 3.179688 C 28.503906 3.710938 29.226562 4.359375 29.832031 5.117188 C 30.445312 5.878906 30.917969 6.726562 31.246094 7.640625 C 31.585938 8.582031 31.757812 9.570312 31.757812 10.578125 C 31.757812 10.882812 31.511719 11.125 31.203125 11.125 Z M 14.746094 10.035156 L 30.632812 10.035156 C 30.410156 6.9375 28.316406 4.261719 25.324219 3.242188 L 24.6875 8.828125 C 24.65625 9.101562 24.417969 9.3125 24.136719 9.3125 L 21.238281 9.3125 C 20.957031 9.3125 20.71875 9.101562 20.6875 8.828125 L 20.050781 3.242188 C 19.164062 3.542969 18.34375 3.996094 17.609375 4.59375 C 15.921875 5.960938 14.898438 7.917969 14.746094 10.035156 " fill-opacity="1" fill-rule="nonzero"/><path fill="#db1616" d="M 31.203125 11.34375 L 14.171875 11.34375 C 13.746094 11.34375 13.398438 11 13.398438 10.582031 C 13.398438 7.867188 14.625 5.3125 16.765625 3.578125 C 17.285156 3.160156 17.84375 2.796875 18.4375 2.5 C 19.039062 2.195312 19.679688 1.957031 20.332031 1.789062 C 20.394531 1.773438 20.460938 1.765625 20.527344 1.765625 C 20.683594 1.765625 20.835938 1.8125 20.964844 1.902344 C 21.148438 2.027344 21.269531 2.222656 21.296875 2.445312 L 21.929688 8 L 23.445312 8 L 24.078125 2.445312 C 24.105469 2.222656 24.226562 2.027344 24.410156 1.898438 C 24.539062 1.8125 24.691406 1.765625 24.847656 1.765625 C 24.914062 1.765625 24.980469 1.773438 25.042969 1.789062 C 26.027344 2.042969 26.957031 2.449219 27.808594 3 C 28.648438 3.539062 29.386719 4.207031 30.003906 4.980469 C 30.632812 5.761719 31.121094 6.632812 31.457031 7.566406 C 31.800781 8.53125 31.980469 9.546875 31.980469 10.582031 C 31.980469 11 31.632812 11.34375 31.203125 11.34375 Z M 20.527344 2.203125 C 20.496094 2.203125 20.46875 2.207031 20.441406 2.210938 C 19.820312 2.371094 19.210938 2.597656 18.636719 2.890625 C 18.074219 3.171875 17.539062 3.519531 17.046875 3.917969 C 15.011719 5.566406 13.839844 7.996094 13.839844 10.582031 C 13.839844 10.761719 13.992188 10.90625 14.171875 10.90625 L 31.203125 10.90625 C 31.386719 10.90625 31.535156 10.761719 31.535156 10.582031 C 31.535156 9.597656 31.367188 8.632812 31.039062 7.710938 C 30.71875 6.824219 30.253906 5.996094 29.660156 5.25 C 29.066406 4.515625 28.363281 3.878906 27.566406 3.363281 C 26.757812 2.839844 25.871094 2.453125 24.933594 2.210938 C 24.90625 2.207031 24.875 2.203125 24.847656 2.203125 C 24.78125 2.203125 24.714844 2.222656 24.660156 2.261719 C 24.582031 2.3125 24.53125 2.398438 24.519531 2.492188 L 23.839844 8.4375 L 21.53125 8.4375 L 20.855469 2.492188 C 20.84375 2.398438 20.792969 2.3125 20.714844 2.261719 C 20.660156 2.222656 20.59375 2.203125 20.527344 2.203125 Z M 30.871094 10.253906 L 14.507812 10.253906 L 14.523438 10.019531 C 14.601562 8.933594 14.898438 7.894531 15.40625 6.933594 C 15.910156 5.964844 16.605469 5.121094 17.46875 4.421875 C 18.222656 3.8125 19.070312 3.34375 19.976562 3.035156 L 20.238281 2.945312 L 20.90625 8.804688 C 20.925781 8.96875 21.066406 9.09375 21.238281 9.09375 L 24.136719 9.09375 C 24.308594 9.09375 24.449219 8.96875 24.46875 8.804688 L 25.136719 2.945312 L 25.394531 3.035156 C 26.90625 3.550781 28.21875 4.480469 29.191406 5.726562 C 30.167969 6.972656 30.742188 8.457031 30.851562 10.019531 Z M 14.988281 9.816406 L 30.390625 9.816406 C 30.097656 6.992188 28.214844 4.570312 25.511719 3.542969 L 24.90625 8.851562 C 24.863281 9.238281 24.53125 9.53125 24.136719 9.53125 L 21.238281 9.53125 C 20.84375 9.53125 20.511719 9.238281 20.46875 8.851562 L 19.863281 3.542969 C 19.101562 3.832031 18.390625 4.242188 17.746094 4.761719 C 16.164062 6.046875 15.191406 7.832031 14.988281 9.816406 " fill-opacity="1" fill-rule="nonzero"/><path fill="#ed1c24" d="M 24.136719 9.3125 L 21.238281 9.3125 C 20.957031 9.3125 20.71875 9.105469 20.6875 8.828125 L 19.8125 1.140625 C 19.78125 0.875 19.949219 0.625 20.210938 0.554688 C 21.007812 0.332031 21.839844 0.21875 22.6875 0.21875 C 23.535156 0.21875 24.367188 0.332031 25.164062 0.554688 C 25.421875 0.628906 25.589844 0.875 25.5625 1.140625 L 24.6875 8.828125 C 24.65625 9.101562 24.417969 9.3125 24.136719 9.3125 Z M 21.730469 8.21875 L 23.644531 8.21875 L 24.410156 1.492188 C 23.851562 1.371094 23.273438 1.3125 22.6875 1.3125 C 22.101562 1.3125 21.523438 1.371094 20.964844 1.492188 L 21.730469 8.21875 " fill-opacity="1" fill-rule="nonzero"/><path fill="#db1616" d="M 24.136719 9.53125 L 21.238281 9.53125 C 20.84375 9.53125 20.511719 9.238281 20.46875 8.851562 L 19.59375 1.164062 C 19.550781 0.792969 19.785156 0.445312 20.152344 0.34375 C 20.96875 0.117188 21.820312 0 22.6875 0 C 23.554688 0 24.40625 0.117188 25.222656 0.34375 C 25.589844 0.445312 25.824219 0.792969 25.78125 1.164062 L 24.90625 8.851562 C 24.863281 9.238281 24.53125 9.53125 24.136719 9.53125 Z M 22.6875 0.4375 C 21.863281 0.4375 21.046875 0.546875 20.269531 0.765625 C 20.113281 0.808594 20.015625 0.957031 20.03125 1.117188 L 20.90625 8.804688 C 20.925781 8.96875 21.066406 9.09375 21.238281 9.09375 L 24.136719 9.09375 C 24.308594 9.09375 24.449219 8.96875 24.46875 8.800781 L 25.339844 1.117188 C 25.359375 0.957031 25.257812 0.808594 25.101562 0.765625 C 24.328125 0.546875 23.515625 0.4375 22.6875 0.4375 Z M 23.839844 8.4375 L 21.53125 8.4375 L 20.722656 1.320312 L 20.917969 1.28125 C 21.492188 1.15625 22.089844 1.09375 22.6875 1.09375 C 23.289062 1.09375 23.882812 1.15625 24.457031 1.28125 L 24.652344 1.320312 Z M 21.929688 8 L 23.445312 8 L 24.167969 1.667969 C 23.683594 1.574219 23.1875 1.527344 22.6875 1.527344 C 22.1875 1.527344 21.691406 1.574219 21.207031 1.667969 L 21.929688 8 " fill-opacity="1" fill-rule="nonzero"/><path fill="#ed1c24" d="M 17.257812 9.3125 C 16.953125 9.3125 16.703125 9.066406 16.703125 8.765625 L 16.703125 4.167969 C 16.703125 3.867188 16.953125 3.625 17.257812 3.625 C 17.5625 3.625 17.808594 3.867188 17.808594 4.167969 L 17.808594 8.765625 C 17.808594 9.066406 17.5625 9.3125 17.257812 9.3125 " fill-opacity="1" fill-rule="nonzero"/><path fill="#db1616" d="M 17.257812 9.53125 C 16.832031 9.53125 16.484375 9.1875 16.484375 8.765625 L 16.484375 4.167969 C 16.484375 3.75 16.832031 3.40625 17.257812 3.40625 C 17.683594 3.40625 18.03125 3.75 18.03125 4.167969 L 18.03125 8.765625 C 18.03125 9.1875 17.683594 9.53125 17.257812 9.53125 Z M 17.257812 3.84375 C 17.074219 3.84375 16.925781 3.988281 16.925781 4.167969 L 16.925781 8.765625 C 16.925781 8.945312 17.074219 9.09375 17.257812 9.09375 C 17.441406 9.09375 17.589844 8.945312 17.589844 8.765625 L 17.589844 4.167969 C 17.589844 3.988281 17.441406 3.84375 17.257812 3.84375 " fill-opacity="1" fill-rule="nonzero"/><path fill="#ed1c24" d="M 28.097656 9.3125 C 27.792969 9.3125 27.546875 9.066406 27.546875 8.765625 L 27.546875 4.167969 C 27.546875 3.867188 27.792969 3.625 28.097656 3.625 C 28.40625 3.625 28.652344 3.867188 28.652344 4.167969 L 28.652344 8.765625 C 28.652344 9.066406 28.40625 9.3125 28.097656 9.3125 " fill-opacity="1" fill-rule="nonzero"/><path fill="#db1616" d="M 28.097656 9.53125 C 27.671875 9.53125 27.324219 9.1875 27.324219 8.765625 L 27.324219 4.167969 C 27.324219 3.75 27.671875 3.40625 28.097656 3.40625 C 28.527344 3.40625 28.875 3.75 28.875 4.167969 L 28.875 8.765625 C 28.875 9.1875 28.527344 9.53125 28.097656 9.53125 Z M 28.097656 3.84375 C 27.917969 3.84375 27.765625 3.988281 27.765625 4.167969 L 27.765625 8.765625 C 27.765625 8.945312 27.917969 9.09375 28.097656 9.09375 C 28.28125 9.09375 28.429688 8.945312 28.429688 8.765625 L 28.429688 4.167969 C 28.429688 3.988281 28.28125 3.84375 28.097656 3.84375 " fill-opacity="1" fill-rule="nonzero"/><path fill="#ed1c24" d="M 22.6875 21.28125 C 21.589844 21.28125 20.523438 21.058594 19.515625 20.625 C 18.546875 20.207031 17.679688 19.609375 16.933594 18.847656 C 16.1875 18.085938 15.601562 17.203125 15.191406 16.21875 C 14.769531 15.199219 14.554688 14.117188 14.554688 13 C 14.554688 12.699219 14.804688 12.453125 15.109375 12.453125 L 30.265625 12.453125 C 30.570312 12.453125 30.820312 12.699219 30.820312 13 C 30.820312 14.117188 30.605469 15.199219 30.183594 16.21875 C 29.773438 17.203125 29.1875 18.085938 28.445312 18.847656 C 27.699219 19.609375 26.828125 20.207031 25.859375 20.625 C 24.855469 21.058594 23.789062 21.28125 22.6875 21.28125 Z M 15.683594 13.546875 C 15.957031 17.253906 18.992188 20.1875 22.6875 20.1875 C 26.382812 20.1875 29.417969 17.253906 29.691406 13.546875 L 15.683594 13.546875 " fill-opacity="1" fill-rule="nonzero"/><path fill="#db1616" d="M 22.6875 21.496094 C 21.558594 21.496094 20.460938 21.273438 19.429688 20.828125 C 18.433594 20.394531 17.539062 19.78125 16.773438 19 C 16.007812 18.21875 15.40625 17.3125 14.988281 16.300781 C 14.554688 15.253906 14.335938 14.144531 14.335938 13 C 14.335938 12.578125 14.683594 12.234375 15.109375 12.234375 L 30.265625 12.234375 C 30.691406 12.234375 31.039062 12.578125 31.039062 13 C 31.039062 14.144531 30.820312 15.253906 30.386719 16.300781 C 29.96875 17.3125 29.367188 18.21875 28.601562 19 C 27.835938 19.78125 26.941406 20.394531 25.949219 20.824219 C 24.914062 21.273438 23.820312 21.496094 22.6875 21.496094 Z M 15.109375 12.671875 C 14.925781 12.671875 14.777344 12.820312 14.777344 13 C 14.777344 14.085938 14.984375 15.140625 15.398438 16.132812 C 15.796875 17.09375 16.363281 17.957031 17.089844 18.695312 C 17.816406 19.4375 18.664062 20.019531 19.605469 20.425781 C 20.582031 20.847656 21.621094 21.0625 22.6875 21.0625 C 23.757812 21.0625 24.792969 20.847656 25.769531 20.425781 C 26.710938 20.019531 27.558594 19.4375 28.285156 18.695312 C 29.011719 17.957031 29.578125 17.09375 29.976562 16.132812 C 30.390625 15.140625 30.597656 14.085938 30.597656 13 C 30.597656 12.820312 30.449219 12.671875 30.265625 12.671875 Z M 22.6875 20.40625 C 20.851562 20.40625 19.097656 19.699219 17.75 18.414062 C 16.410156 17.140625 15.597656 15.417969 15.460938 13.5625 L 15.445312 13.328125 L 29.929688 13.328125 L 29.914062 13.5625 C 29.777344 15.417969 28.964844 17.140625 27.628906 18.414062 C 26.28125 19.699219 24.527344 20.40625 22.6875 20.40625 Z M 15.921875 13.765625 C 16.296875 17.261719 19.226562 19.96875 22.6875 19.96875 C 26.148438 19.96875 29.078125 17.261719 29.453125 13.765625 L 15.921875 13.765625 " fill-opacity="1" fill-rule="nonzero"/></svg>