<svg xmlns="http://www.w3.org/2000/svg" xmlns:xlink="http://www.w3.org/1999/xlink" width="60" zoomAndPan="magnify" viewBox="0 0 45 44.999999" height="60" preserveAspectRatio="xMidYMid meet" version="1.0"><defs><clipPath id="id1"><path d="M 4.078125 0 L 40.828125 0 L 40.828125 44.25 L 4.078125 44.25 Z M 4.078125 0 " clip-rule="nonzero"/></clipPath></defs><rect x="-4.5" width="54" fill="#ffffff" y="-4.5" height="53.999999" fill-opacity="1"/><rect x="-4.5" width="54" fill="#ffffff" y="-4.5" height="53.999999" fill-opacity="1"/><rect x="-4.5" width="54" fill="#ffffff" y="-4.5" height="53.999999" fill-opacity="1"/><rect x="-4.5" width="54" fill="#ffffff" y="-4.5" height="53.999999" fill-opacity="1"/><g clip-path="url(#id1)"><path fill="#db1616" d="M 12.914062 32.617188 C 16.96875 32.617188 20.253906 29.425781 20.253906 25.476562 C 20.253906 21.535156 16.96875 18.335938 12.914062 18.335938 C 8.863281 18.335938 5.578125 21.535156 5.578125 25.476562 C 5.578125 29.425781 8.863281 32.617188 12.914062 32.617188 Z M 17.152344 5.605469 C 16.871094 5.605469 16.640625 5.332031 16.640625 4.992188 C 16.640625 4.652344 16.871094 4.378906 17.152344 4.378906 L 33.914062 4.378906 C 34.195312 4.378906 34.421875 4.652344 34.421875 4.992188 C 34.421875 5.332031 34.195312 5.605469 33.914062 5.605469 Z M 17.152344 9.976562 C 16.871094 9.976562 16.640625 9.703125 16.640625 9.367188 C 16.640625 9.027344 16.871094 8.753906 17.152344 8.753906 L 33.914062 8.753906 C 34.195312 8.753906 34.421875 9.027344 34.421875 9.367188 C 34.421875 9.703125 34.195312 9.976562 33.914062 9.976562 Z M 17.152344 14.347656 C 16.871094 14.347656 16.640625 14.074219 16.640625 13.734375 C 16.640625 13.398438 16.871094 13.125 17.152344 13.125 L 33.914062 13.125 C 34.195312 13.125 34.421875 13.398438 34.421875 13.734375 C 34.421875 14.074219 34.195312 14.347656 33.914062 14.347656 Z M 11.851562 17.171875 C 12.199219 17.128906 12.558594 17.109375 12.921875 17.109375 C 14.261719 17.109375 15.527344 17.40625 16.660156 17.9375 C 16.722656 17.683594 16.917969 17.496094 17.152344 17.496094 L 33.914062 17.496094 C 34.195312 17.496094 34.421875 17.769531 34.421875 18.109375 C 34.421875 18.445312 34.195312 18.71875 33.914062 18.71875 L 17.996094 18.71875 C 19.136719 19.535156 20.0625 20.617188 20.679688 21.867188 L 33.914062 21.867188 C 34.195312 21.867188 34.421875 22.140625 34.421875 22.484375 C 34.421875 22.820312 34.195312 23.09375 33.914062 23.09375 L 21.164062 23.09375 C 21.390625 23.847656 21.519531 24.644531 21.519531 25.472656 C 21.519531 25.730469 21.503906 25.988281 21.484375 26.242188 L 33.914062 26.242188 C 34.195312 26.242188 34.421875 26.515625 34.421875 26.855469 C 34.421875 27.191406 34.195312 27.464844 33.914062 27.464844 L 21.273438 27.464844 C 20.980469 28.625 20.441406 29.695312 19.707031 30.613281 L 33.914062 30.613281 C 34.191406 30.613281 34.421875 30.886719 34.421875 31.226562 C 34.421875 31.5625 34.191406 31.835938 33.914062 31.835938 L 18.503906 31.835938 C 18.492188 31.84375 18.484375 31.851562 18.476562 31.859375 L 18.476562 34.984375 L 33.914062 34.984375 C 34.195312 34.984375 34.421875 35.257812 34.421875 35.59375 C 34.421875 35.933594 34.195312 36.207031 33.914062 36.207031 L 18.476562 36.207031 L 18.476562 40.394531 L 37.511719 40.394531 C 38.515625 40.394531 39.328125 39.644531 39.328125 38.722656 L 39.328125 2.78125 C 39.328125 1.859375 38.515625 1.109375 37.511719 1.109375 L 13.664062 1.109375 C 12.660156 1.109375 11.851562 1.859375 11.851562 2.78125 Z M 10.640625 17.40625 L 10.640625 2.78125 C 10.640625 1.242188 11.996094 0 13.664062 0 L 37.515625 0 C 39.183594 0 40.539062 1.242188 40.539062 2.78125 L 40.539062 38.722656 C 40.539062 40.261719 39.183594 41.503906 37.515625 41.503906 L 18.476562 41.503906 L 18.476562 42.816406 C 18.476562 43.5 17.917969 44.050781 17.226562 44.050781 C 16.957031 44.050781 16.695312 43.964844 16.480469 43.8125 L 13.585938 41.699219 C 13.140625 41.378906 12.539062 41.378906 12.097656 41.699219 L 9.203125 43.8125 C 8.644531 44.214844 7.859375 44.097656 7.453125 43.550781 C 7.292969 43.339844 7.207031 43.078125 7.207031 42.816406 L 7.207031 31.722656 C 5.441406 30.191406 4.328125 27.957031 4.328125 25.472656 C 4.328125 21.621094 7 18.375 10.640625 17.40625 " fill-opacity="1" fill-rule="nonzero"/></g></svg>