<svg xmlns="http://www.w3.org/2000/svg" xmlns:xlink="http://www.w3.org/1999/xlink" width="60" zoomAndPan="magnify" viewBox="0 0 45 44.999999" height="60" preserveAspectRatio="xMidYMid meet" version="1.0"><defs><clipPath id="id1"><path d="M 29 11 L 43.824219 11 L 43.824219 44.21875 L 29 44.21875 Z M 29 11 " clip-rule="nonzero"/></clipPath><clipPath id="id2"><path d="M 30 0.71875 L 40 0.71875 L 40 6 L 30 6 Z M 30 0.71875 " clip-rule="nonzero"/></clipPath><clipPath id="id3"><path d="M 1.074219 11 L 15 11 L 15 44.21875 L 1.074219 44.21875 Z M 1.074219 11 " clip-rule="nonzero"/></clipPath><clipPath id="id4"><path d="M 5 0.71875 L 15 0.71875 L 15 6 L 5 6 Z M 5 0.71875 " clip-rule="nonzero"/></clipPath><clipPath id="id5"><path d="M 13 11 L 32 11 L 32 44.21875 L 13 44.21875 Z M 13 11 " clip-rule="nonzero"/></clipPath><clipPath id="id6"><path d="M 17 0.71875 L 28 0.71875 L 28 6 L 17 6 Z M 17 0.71875 " clip-rule="nonzero"/></clipPath></defs><rect x="-4.5" width="54" fill="#ffffff" y="-4.5" height="53.999999" fill-opacity="1"/><rect x="-4.5" width="54" fill="#ffffff" y="-4.5" height="53.999999" fill-opacity="1"/><rect x="-4.5" width="54" fill="#ffffff" y="-4.5" height="53.999999" fill-opacity="1"/><path fill="#ed1c24" d="M 29.765625 13.304688 C 30.558594 14.363281 31.160156 15.710938 31.574219 17.363281 L 31.574219 11.691406 L 31.285156 11.691406 C 31.140625 11.691406 31 11.714844 30.867188 11.757812 C 30.617188 11.800781 30.304688 11.882812 29.953125 12.035156 C 29.679688 12.152344 29.386719 12.320312 29.089844 12.539062 C 29.316406 12.757812 29.542969 13.011719 29.765625 13.304688 Z M 29.765625 13.304688 " fill-opacity="1" fill-rule="nonzero"/><path fill="#ed1c24" d="M 32.679688 11.691406 L 36.632812 11.691406 L 36.632812 14.910156 L 32.679688 14.910156 Z M 32.679688 11.691406 " fill-opacity="1" fill-rule="nonzero"/><g clip-path="url(#id1)"><path fill="#ed1c24" d="M 39.355469 12.035156 C 39.007812 11.882812 38.695312 11.800781 38.441406 11.757812 C 38.3125 11.714844 38.171875 11.691406 38.023438 11.691406 L 37.738281 11.691406 L 37.738281 24.277344 L 32.269531 24.277344 C 32.265625 25.125 32.238281 26.007812 32.1875 26.90625 C 32.128906 28.019531 31.210938 28.886719 30.101562 28.886719 C 30.0625 28.886719 30.027344 28.886719 29.988281 28.882812 C 29.972656 28.882812 29.957031 28.878906 29.9375 28.878906 L 29.9375 42.0625 C 29.9375 43.253906 30.902344 44.21875 32.09375 44.21875 C 33.285156 44.21875 34.25 43.253906 34.25 42.0625 L 34.25 26.328125 L 35.058594 26.328125 L 35.058594 42.0625 C 35.058594 43.253906 36.023438 44.21875 37.214844 44.21875 C 38.40625 44.21875 39.371094 43.253906 39.371094 42.0625 L 39.371094 15.675781 C 39.4375 15.773438 39.5 15.875 39.566406 15.992188 C 40.273438 17.242188 40.996094 19.675781 40.992188 24.070312 C 40.992188 24.882812 40.964844 25.761719 40.914062 26.714844 C 40.871094 27.484375 41.460938 28.144531 42.230469 28.1875 C 42.257812 28.1875 42.28125 28.1875 42.308594 28.1875 C 43.042969 28.1875 43.660156 27.613281 43.699219 26.871094 C 43.757812 25.871094 43.78125 24.9375 43.78125 24.070312 C 43.777344 18.546875 42.753906 15.503906 41.417969 13.726562 C 40.75 12.847656 40 12.316406 39.355469 12.035156 Z M 39.355469 12.035156 " fill-opacity="1" fill-rule="nonzero"/></g><path fill="#ed1c24" d="M 30.730469 6.597656 C 30.730469 8.765625 32.488281 10.523438 34.65625 10.523438 C 36.824219 10.523438 38.578125 8.765625 38.578125 6.597656 C 38.578125 6.40625 38.566406 6.21875 38.539062 6.035156 L 30.773438 6.035156 C 30.746094 6.21875 30.730469 6.40625 30.730469 6.597656 Z M 30.730469 6.597656 " fill-opacity="1" fill-rule="nonzero"/><g clip-path="url(#id2)"><path fill="#ed1c24" d="M 30.550781 4.632812 C 30.261719 4.632812 30.023438 4.867188 30.023438 5.15625 C 30.023438 5.449219 30.261719 5.683594 30.550781 5.683594 L 38.757812 5.683594 C 39.050781 5.683594 39.285156 5.449219 39.285156 5.15625 C 39.285156 4.867188 39.050781 4.632812 38.757812 4.632812 L 38.6875 4.632812 C 38.683594 4.511719 38.675781 4.398438 38.664062 4.28125 C 38.527344 3.085938 37.875 2.046875 36.929688 1.402344 L 36.929688 1.722656 C 36.929688 1.953125 36.742188 2.140625 36.511719 2.140625 C 36.28125 2.140625 36.097656 1.953125 36.097656 1.722656 L 36.097656 0.964844 C 35.773438 0.839844 35.429688 0.757812 35.070312 0.71875 L 35.070312 1.722656 C 35.070312 1.953125 34.886719 2.140625 34.65625 2.140625 C 34.425781 2.140625 34.238281 1.953125 34.238281 1.722656 L 34.238281 0.71875 C 33.882812 0.757812 33.539062 0.839844 33.214844 0.964844 L 33.214844 1.722656 C 33.214844 1.953125 33.027344 2.140625 32.796875 2.140625 C 32.566406 2.140625 32.382812 1.953125 32.382812 1.722656 L 32.382812 1.402344 C 31.4375 2.046875 30.78125 3.085938 30.648438 4.28125 C 30.632812 4.398438 30.625 4.511719 30.625 4.632812 Z M 30.550781 4.632812 " fill-opacity="1" fill-rule="nonzero"/></g><path fill="#ed1c24" d="M 13.320312 14.910156 L 13.320312 17.347656 C 13.535156 16.496094 13.800781 15.722656 14.117188 15.027344 C 14.621094 13.902344 15.222656 13.105469 15.804688 12.539062 C 15.507812 12.320312 15.210938 12.15625 14.9375 12.035156 C 14.589844 11.882812 14.277344 11.800781 14.027344 11.757812 C 13.894531 11.714844 13.753906 11.691406 13.605469 11.691406 L 13.320312 11.691406 Z M 13.320312 14.910156 " fill-opacity="1" fill-rule="nonzero"/><path fill="#ed1c24" d="M 8.261719 11.691406 L 12.214844 11.691406 L 12.214844 14.910156 L 8.261719 14.910156 Z M 8.261719 11.691406 " fill-opacity="1" fill-rule="nonzero"/><g clip-path="url(#id3)"><path fill="#ed1c24" d="M 14.792969 28.886719 C 13.683594 28.886719 12.765625 28.019531 12.703125 26.910156 C 12.652344 26.003906 12.625 25.121094 12.621094 24.277344 L 7.15625 24.277344 L 7.15625 11.691406 L 6.867188 11.691406 C 6.722656 11.691406 6.582031 11.714844 6.449219 11.757812 C 6.199219 11.800781 5.886719 11.882812 5.535156 12.035156 C 4.5625 12.453125 3.382812 13.445312 2.542969 15.316406 C 1.691406 17.1875 1.113281 19.921875 1.109375 24.070312 C 1.109375 24.9375 1.136719 25.871094 1.191406 26.871094 C 1.234375 27.613281 1.847656 28.1875 2.582031 28.1875 C 2.609375 28.1875 2.636719 28.1875 2.660156 28.1875 C 3.429688 28.144531 4.019531 27.484375 3.976562 26.714844 C 3.925781 25.761719 3.898438 24.882812 3.902344 24.070312 C 3.894531 19.257812 4.761719 16.8125 5.519531 15.664062 L 5.519531 42.0625 C 5.519531 43.253906 6.484375 44.21875 7.675781 44.21875 C 8.867188 44.21875 9.832031 43.253906 9.832031 42.0625 L 9.832031 26.328125 L 10.640625 26.328125 L 10.640625 42.0625 C 10.640625 43.253906 11.605469 44.21875 12.796875 44.21875 C 13.988281 44.21875 14.953125 43.253906 14.953125 42.0625 L 14.953125 28.878906 C 14.9375 28.878906 14.925781 28.882812 14.910156 28.882812 C 14.867188 28.886719 14.828125 28.886719 14.792969 28.886719 Z M 14.792969 28.886719 " fill-opacity="1" fill-rule="nonzero"/></g><path fill="#ed1c24" d="M 6.3125 6.597656 C 6.3125 8.765625 8.070312 10.523438 10.238281 10.523438 C 12.40625 10.523438 14.160156 8.765625 14.160156 6.597656 C 14.160156 6.40625 14.148438 6.21875 14.121094 6.035156 L 6.355469 6.035156 C 6.328125 6.21875 6.3125 6.40625 6.3125 6.597656 Z M 6.3125 6.597656 " fill-opacity="1" fill-rule="nonzero"/><g clip-path="url(#id4)"><path fill="#ed1c24" d="M 6.207031 4.632812 L 6.132812 4.632812 C 5.84375 4.632812 5.605469 4.867188 5.605469 5.15625 C 5.605469 5.449219 5.84375 5.683594 6.132812 5.683594 L 14.34375 5.683594 C 14.632812 5.683594 14.867188 5.449219 14.867188 5.15625 C 14.867188 4.867188 14.632812 4.632812 14.34375 4.632812 L 14.269531 4.632812 C 14.265625 4.511719 14.257812 4.398438 14.246094 4.28125 C 14.113281 3.085938 13.457031 2.046875 12.511719 1.402344 L 12.511719 1.722656 C 12.511719 1.953125 12.324219 2.140625 12.09375 2.140625 C 11.863281 2.140625 11.679688 1.953125 11.679688 1.722656 L 11.679688 0.964844 C 11.355469 0.839844 11.011719 0.757812 10.652344 0.71875 L 10.652344 1.722656 C 10.652344 1.953125 10.46875 2.140625 10.238281 2.140625 C 10.007812 2.140625 9.820312 1.953125 9.820312 1.722656 L 9.820312 0.71875 C 9.464844 0.757812 9.121094 0.839844 8.796875 0.964844 L 8.796875 1.722656 C 8.796875 1.953125 8.609375 2.140625 8.378906 2.140625 C 8.152344 2.140625 7.964844 1.953125 7.964844 1.722656 L 7.964844 1.402344 C 7.019531 2.046875 6.363281 3.085938 6.230469 4.28125 C 6.21875 4.398438 6.210938 4.511719 6.207031 4.632812 Z M 6.207031 4.632812 " fill-opacity="1" fill-rule="nonzero"/></g><path fill="#ed1c24" d="M 20.46875 11.691406 L 24.421875 11.691406 L 24.421875 14.910156 L 20.46875 14.910156 Z M 20.46875 11.691406 " fill-opacity="1" fill-rule="nonzero"/><g clip-path="url(#id5)"><path fill="#ed1c24" d="M 27.164062 15.675781 C 27.226562 15.773438 27.292969 15.875 27.359375 15.992188 C 28.0625 17.242188 28.785156 19.675781 28.78125 24.070312 C 28.78125 24.882812 28.757812 25.761719 28.707031 26.714844 C 28.664062 27.484375 29.253906 28.144531 30.023438 28.1875 C 30.046875 28.1875 30.074219 28.1875 30.101562 28.1875 C 30.835938 28.1875 31.453125 27.613281 31.492188 26.871094 C 31.546875 25.871094 31.574219 24.9375 31.574219 24.070312 C 31.566406 18.546875 30.542969 15.503906 29.207031 13.726562 C 28.542969 12.847656 27.792969 12.316406 27.148438 12.035156 C 26.796875 11.882812 26.488281 11.800781 26.234375 11.757812 C 26.101562 11.714844 25.960938 11.691406 25.816406 11.691406 L 25.527344 11.691406 L 25.527344 24.277344 L 19.367188 24.277344 L 19.367188 11.691406 L 19.078125 11.691406 C 18.929688 11.691406 18.792969 11.714844 18.660156 11.757812 C 18.40625 11.800781 18.09375 11.882812 17.746094 12.035156 C 16.769531 12.453125 15.589844 13.445312 14.75 15.316406 C 13.902344 17.1875 13.320312 19.921875 13.320312 24.070312 C 13.320312 24.9375 13.34375 25.871094 13.398438 26.871094 C 13.441406 27.613281 14.058594 28.1875 14.792969 28.1875 C 14.816406 28.1875 14.84375 28.1875 14.871094 28.1875 C 15.640625 28.144531 16.230469 27.484375 16.1875 26.714844 C 16.132812 25.761719 16.109375 24.882812 16.109375 24.070312 C 16.105469 19.257812 16.972656 16.8125 17.730469 15.664062 L 17.730469 42.0625 C 17.730469 43.253906 18.695312 44.21875 19.886719 44.21875 C 21.078125 44.21875 22.042969 43.253906 22.042969 42.0625 L 22.042969 26.328125 L 22.851562 26.328125 L 22.851562 42.0625 C 22.851562 43.253906 23.816406 44.21875 25.007812 44.21875 C 26.199219 44.21875 27.164062 43.253906 27.164062 42.0625 Z M 27.164062 15.675781 " fill-opacity="1" fill-rule="nonzero"/></g><path fill="#ed1c24" d="M 18.523438 6.597656 C 18.523438 8.765625 20.28125 10.523438 22.445312 10.523438 C 24.613281 10.523438 26.371094 8.765625 26.371094 6.597656 C 26.371094 6.40625 26.355469 6.21875 26.328125 6.035156 L 18.5625 6.035156 C 18.535156 6.21875 18.523438 6.40625 18.523438 6.597656 Z M 18.523438 6.597656 " fill-opacity="1" fill-rule="nonzero"/><g clip-path="url(#id6)"><path fill="#ed1c24" d="M 18.34375 4.632812 C 18.050781 4.632812 17.816406 4.867188 17.816406 5.15625 C 17.816406 5.449219 18.050781 5.683594 18.34375 5.683594 L 26.550781 5.683594 C 26.839844 5.683594 27.078125 5.449219 27.078125 5.15625 C 27.078125 4.867188 26.839844 4.632812 26.550781 4.632812 L 26.476562 4.632812 C 26.476562 4.511719 26.46875 4.398438 26.453125 4.28125 C 26.320312 3.085938 25.664062 2.046875 24.71875 1.402344 L 24.71875 1.722656 C 24.71875 1.953125 24.535156 2.140625 24.304688 2.140625 C 24.074219 2.140625 23.886719 1.953125 23.886719 1.722656 L 23.886719 0.964844 C 23.5625 0.839844 23.21875 0.757812 22.863281 0.71875 L 22.863281 1.722656 C 22.863281 1.953125 22.675781 2.140625 22.445312 2.140625 C 22.214844 2.140625 22.03125 1.953125 22.03125 1.722656 L 22.03125 0.71875 C 21.671875 0.757812 21.328125 0.839844 21.003906 0.964844 L 21.003906 1.722656 C 21.003906 1.953125 20.820312 2.140625 20.589844 2.140625 C 20.359375 2.140625 20.171875 1.953125 20.171875 1.722656 L 20.171875 1.402344 C 19.226562 2.046875 18.570312 3.085938 18.4375 4.28125 C 18.425781 4.398438 18.417969 4.511719 18.414062 4.632812 Z M 18.34375 4.632812 " fill-opacity="1" fill-rule="nonzero"/></g></svg>